<svg xmlns="http://www.w3.org/2000/svg" xmlns:xlink="http://www.w3.org/1999/xlink" width="500" zoomAndPan="magnify" viewBox="0 0 375 374.999991" height="500" preserveAspectRatio="xMidYMid meet" version="1.0"><defs><g/><clipPath id="c515842b00"><path d="M 112.484375 47.933594 L 262.484375 47.933594 L 262.484375 326.933594 L 112.484375 326.933594 Z M 112.484375 47.933594 " clip-rule="nonzero"/></clipPath></defs><g clip-path="url(#c515842b00)"><path fill="#000000" d="M 254.320312 302.828125 C 254.320312 311.703125 247.121094 318.898438 238.242188 318.898438 L 136.734375 318.898438 C 127.855469 318.898438 120.65625 311.703125 120.65625 302.828125 L 120.65625 72.042969 C 120.65625 63.164062 127.855469 55.972656 136.734375 55.972656 L 157.382812 55.972656 C 158.472656 55.972656 159.355469 56.855469 159.355469 57.945312 L 159.355469 58.964844 C 159.355469 63.011719 162.636719 66.292969 166.6875 66.292969 L 208.289062 66.292969 C 212.335938 66.292969 215.621094 63.011719 215.621094 58.964844 L 215.621094 57.945312 C 215.621094 56.855469 216.503906 55.972656 217.59375 55.972656 L 238.242188 55.972656 C 247.121094 55.972656 254.320312 63.164062 254.320312 72.042969 Z M 238.242188 47.933594 L 136.734375 47.933594 C 123.4375 47.933594 112.621094 58.75 112.621094 72.042969 L 112.621094 302.828125 C 112.621094 316.121094 123.4375 326.933594 136.734375 326.933594 L 238.242188 326.933594 C 251.539062 326.933594 262.355469 316.121094 262.355469 302.828125 L 262.355469 72.042969 C 262.355469 58.75 251.539062 47.933594 238.242188 47.933594 " fill-opacity="1" fill-rule="nonzero"/></g><g fill="#000000" fill-opacity="1"><g transform="translate(115.905194, 135.364086)"><g><path d="M 2.671875 0 L 1.375 0 L 1.375 -12.15625 L 2.671875 -12.15625 Z M 2.671875 0 "/></g></g></g></svg>