<svg xmlns="http://www.w3.org/2000/svg" xmlns:xlink="http://www.w3.org/1999/xlink" width="500" zoomAndPan="magnify" viewBox="0 0 375 374.999991" height="500" preserveAspectRatio="xMidYMid meet" version="1.0"><defs><g/><clipPath id="7894a1c56b"><path d="M 63.582031 63.582031 L 311.082031 63.582031 L 311.082031 311.082031 L 63.582031 311.082031 Z M 63.582031 63.582031 " clip-rule="nonzero"/></clipPath></defs><g clip-path="url(#7894a1c56b)"><path fill="#000000" d="M 63.582031 91.320312 C 63.582031 84.539062 73.421875 77.933594 89.328125 72.742188 C 106.648438 67.078125 130.667969 63.582031 157.292969 63.582031 C 183.917969 63.582031 207.9375 67.078125 225.257812 72.742188 C 241.164062 77.9375 251.003906 84.539062 251.003906 91.320312 C 251.003906 98.105469 241.164062 104.707031 225.257812 109.902344 C 207.9375 115.558594 183.917969 119.0625 157.292969 119.0625 C 130.667969 119.0625 106.648438 115.558594 89.328125 109.902344 C 73.421875 104.707031 63.582031 98.105469 63.582031 91.320312 Z M 89.328125 173.914062 C 106.648438 179.566406 130.667969 183.070312 157.292969 183.070312 C 183.917969 183.070312 207.9375 179.566406 225.257812 173.914062 C 241.164062 168.714844 251.003906 162.105469 251.003906 155.332031 L 251.003906 108.441406 C 251.003906 107.613281 250.0625 107.144531 249.394531 107.636719 C 244.035156 111.617188 236.722656 115.113281 227.886719 118.003906 C 209.75 123.929688 184.777344 127.59375 157.292969 127.59375 C 129.808594 127.59375 104.839844 123.929688 86.699219 118.003906 C 77.863281 115.113281 70.550781 111.609375 65.191406 107.636719 C 64.523438 107.144531 63.582031 107.613281 63.582031 108.441406 L 63.582031 155.332031 C 63.582031 162.105469 73.421875 168.714844 89.328125 173.914062 Z M 249.988281 210.480469 C 250.546875 210.480469 250.996094 210.027344 250.996094 209.472656 L 250.996094 172.445312 C 250.996094 171.617188 250.054688 171.148438 249.386719 171.640625 C 244.03125 175.621094 236.714844 179.117188 227.878906 182.007812 C 209.738281 187.933594 184.773438 191.597656 157.285156 191.597656 C 129.800781 191.597656 104.835938 187.925781 86.695312 182.007812 C 77.859375 179.121094 70.542969 175.621094 65.1875 171.640625 C 64.519531 171.148438 63.578125 171.617188 63.578125 172.445312 L 63.578125 219.335938 C 63.578125 226.117188 73.414062 232.71875 89.324219 237.917969 C 106.640625 243.570312 130.664062 247.074219 157.285156 247.074219 C 160.238281 247.074219 162.738281 247.050781 164.8125 246.992188 C 165.617188 246.976562 166.425781 246.949219 167.25 246.917969 C 167.792969 246.902344 168.226562 246.453125 168.226562 245.910156 L 168.226562 225.570312 C 168.226562 221.421875 169.921875 217.644531 172.65625 214.910156 L 172.933594 214.65625 C 175.652344 212.078125 179.308594 210.488281 183.3125 210.488281 L 249.988281 210.488281 Z M 168.367188 256.273438 C 168.300781 255.773438 167.855469 255.410156 167.347656 255.425781 C 166.582031 255.453125 165.800781 255.476562 165.015625 255.496094 C 162.058594 255.570312 159.476562 255.605469 157.292969 255.605469 C 129.808594 255.605469 104.839844 251.941406 86.699219 246.015625 C 77.863281 243.132812 70.550781 239.628906 65.191406 235.652344 C 64.523438 235.15625 63.582031 235.625 63.582031 236.457031 L 63.582031 283.34375 C 63.582031 290.125 73.429688 296.726562 89.328125 301.925781 C 106.648438 307.582031 130.675781 311.082031 157.292969 311.082031 C 161.242188 311.082031 164.871094 311.023438 168.195312 310.898438 C 168.882812 310.875 169.328125 310.179688 169.097656 309.53125 C 168.542969 307.957031 168.238281 306.277344 168.238281 304.523438 L 168.238281 275.871094 C 168.238281 271.71875 169.933594 267.945312 172.667969 265.214844 L 172.847656 265.046875 L 172.667969 264.867188 C 170.378906 262.585938 168.828125 259.597656 168.367188 256.273438 Z M 178.691406 258.875 C 177.496094 257.679688 176.757812 256.039062 176.757812 254.226562 L 176.757812 225.570312 C 176.757812 223.773438 177.5 222.132812 178.691406 220.945312 L 178.863281 220.757812 C 180.027344 219.683594 181.589844 219.011719 183.316406 219.011719 L 304.53125 219.011719 C 306.332031 219.011719 307.972656 219.757812 309.160156 220.945312 C 310.347656 222.132812 311.089844 223.773438 311.089844 225.570312 L 311.089844 254.226562 C 311.089844 256.035156 310.359375 257.671875 309.175781 258.855469 C 307.972656 260.042969 306.332031 260.785156 304.53125 260.785156 L 183.316406 260.785156 C 181.503906 260.785156 179.863281 260.050781 178.691406 258.875 Z M 233.394531 239.902344 C 233.394531 242.261719 235.304688 244.164062 237.65625 244.164062 L 297.484375 244.164062 C 299.839844 244.164062 301.746094 242.253906 301.746094 239.902344 C 301.746094 237.546875 299.835938 235.640625 297.484375 235.640625 L 237.65625 235.640625 C 235.300781 235.632812 233.394531 237.546875 233.394531 239.902344 Z M 190.339844 239.902344 C 190.339844 242.261719 192.253906 244.171875 194.605469 244.171875 C 196.960938 244.171875 198.867188 242.261719 198.867188 239.902344 C 198.867188 237.546875 196.953125 235.640625 194.605469 235.640625 C 192.253906 235.632812 190.339844 237.546875 190.339844 239.902344 Z M 311.082031 275.871094 L 311.082031 304.523438 C 311.082031 306.332031 310.351562 307.972656 309.171875 309.152344 C 307.964844 310.339844 306.324219 311.082031 304.523438 311.082031 L 183.3125 311.082031 C 182.46875 311.082031 181.664062 310.921875 180.929688 310.636719 L 180.71875 310.550781 C 179.953125 310.222656 179.257812 309.746094 178.683594 309.171875 C 177.488281 307.976562 176.753906 306.335938 176.753906 304.523438 L 176.753906 275.871094 C 176.753906 274.070312 177.496094 272.429688 178.683594 271.242188 L 178.855469 271.054688 C 180.019531 269.980469 181.585938 269.3125 183.3125 269.3125 L 304.523438 269.3125 C 306.324219 269.3125 307.964844 270.054688 309.152344 271.242188 C 310.339844 272.429688 311.082031 274.070312 311.082031 275.871094 Z M 198.875 290.515625 C 198.875 288.160156 196.960938 286.253906 194.609375 286.253906 C 192.253906 286.253906 190.347656 288.164062 190.347656 290.523438 C 190.347656 292.878906 192.257812 294.792969 194.609375 294.792969 C 196.960938 294.785156 198.875 292.875 198.875 290.515625 Z M 301.746094 290.199219 C 301.746094 287.84375 299.835938 285.9375 297.484375 285.9375 L 237.65625 285.9375 C 235.300781 285.9375 233.394531 287.847656 233.394531 290.199219 C 233.394531 292.558594 235.304688 294.464844 237.65625 294.464844 L 297.484375 294.464844 C 299.835938 294.464844 301.746094 292.550781 301.746094 290.199219 Z M 301.746094 290.199219 " fill-opacity="1" fill-rule="evenodd"/></g><g fill="#000000" fill-opacity="1"><g transform="translate(177.625702, 151.775308)"><g><path d="M 2.671875 0 L 1.375 0 L 1.375 -12.15625 L 2.671875 -12.15625 Z M 2.671875 0 "/></g></g></g></svg>